<svg id="Apple_Pay" data-name="Apple Pay" xmlns="http://www.w3.org/2000/svg" width="66" height="46" viewBox="0 0 66 46">
  <rect id="Rectangle_Copy_12" data-name="Rectangle Copy 12" width="66" height="46" rx="3" fill="#e6e7e8"/>
  <path id="XMLID_34_-path" d="M1.785,1.927a2.2,2.2,0,0,1-1.772.846A2.552,2.552,0,0,1,.646.917,2.633,2.633,0,0,1,2.4,0a2.719,2.719,0,0,1-.619,1.927Z" transform="translate(19.796 16)"/>
  <path id="XMLID_34_-path-2" data-name="XMLID_34_-path" d="M7.189,0C6.212-.053,5.375.565,4.911.565S3.729.032,2.956.046A2.884,2.884,0,0,0,.5,1.553C-.553,3.388.228,6.1,1.247,7.6c.5.739,1.1,1.55,1.884,1.521.745-.028,1.041-.491,1.941-.491s1.167.491,1.955.476c.816-.014,1.329-.739,1.828-1.479a6.518,6.518,0,0,0,.816-1.7A2.675,2.675,0,0,1,8.082,3.487,2.737,2.737,0,0,1,9.369,1.2,2.776,2.776,0,0,0,7.189,0Z" transform="translate(15.004 18.904)"/>
  <path id="XMLID_34_-path-3" data-name="XMLID_34_-path" d="M0,0V11.083H1.7V7.294H4.057A3.5,3.5,0,0,0,7.72,3.64,3.457,3.457,0,0,0,4.113,0Z" transform="translate(27.839 16.846)"/>
  <path id="XMLID_34_-path-4" data-name="XMLID_34_-path" d="M0,0H1.962a2.055,2.055,0,0,1,2.32,2.2A2.062,2.062,0,0,1,1.955,4.4H0V0Z" transform="translate(29.541 18.296)" fill="#e6e7e8"/>
  <path id="XMLID_34_-path-5" data-name="XMLID_34_-path" d="M2.686,8.232A2.809,2.809,0,0,0,5.2,6.818h.035V8.147H6.806V2.63C6.806,1.031,5.541,0,3.593,0,1.786,0,.45,1.045.4,2.481H1.934a1.5,1.5,0,0,1,1.61-1.13c1.041,0,1.624.491,1.624,1.393v.611l-2.123.128C1.069,3.6,0,4.422,0,5.844A2.422,2.422,0,0,0,2.686,8.232Z" transform="translate(35.981 19.782)"/>
  <path id="XMLID_34_-path-6" data-name="XMLID_34_-path" d="M1.484,2.4C.577,2.4,0,1.962,0,1.287,0,.59.555.185,1.617.121L3.509,0V.626A1.857,1.857,0,0,1,1.484,2.4Z" transform="translate(37.641 24.296)" fill="#e6e7e8"/>
  <path id="XMLID_34_-path-7" data-name="XMLID_34_-path" d="M1.441,11.055c1.659,0,2.44-.64,3.122-2.581L7.552,0H5.822l-2,6.547H3.783L1.779,0H0L2.883,8.069l-.155.491A1.356,1.356,0,0,1,1.294,9.711c-.134,0-.394-.014-.5-.028v1.329A4.636,4.636,0,0,0,1.441,11.055Z" transform="translate(43.448 19.889)"/>
</svg>
