<svg id="Pay_Pal" data-name="Pay Pal" xmlns="http://www.w3.org/2000/svg" width="66" height="46" viewBox="0 0 66 46">
  <rect id="Rectangle_Copy_4" data-name="Rectangle Copy 4" width="66" height="46" rx="3" fill="#1b3d92"/>
  <g id="Group" transform="translate(23 11)">
    <path id="Path" d="M18.745,6.3a4.961,4.961,0,0,0-1.035-4.43C16.573.561,14.519,0,11.891,0H4.263A1.1,1.1,0,0,0,3.185.931L.008,21.277a.659.659,0,0,0,.647.764h4.71l-.325,2.082a.577.577,0,0,0,.566.669h3.97a.958.958,0,0,0,.943-.814l.039-.2.748-4.79.048-.265a.958.958,0,0,1,.943-.814h.594c3.846,0,6.857-1.578,7.737-6.142.368-1.907.177-3.5-.795-4.618A3.788,3.788,0,0,0,18.745,6.3h0" transform="translate(0)" fill="#fff" opacity="0.68"/>
    <path id="Path-2" data-name="Path" d="M18.745,6.3a4.961,4.961,0,0,0-1.035-4.43C16.573.561,14.519,0,11.891,0H4.263A1.1,1.1,0,0,0,3.185.931L.008,21.277a.659.659,0,0,0,.647.764h4.71l1.183-7.578-.037.238a1.091,1.091,0,0,1,1.074-.931H9.823c4.4,0,7.838-1.8,8.844-7.021.03-.154.055-.3.078-.451" transform="translate(0)" fill="#fff" opacity="0.7"/>
    <path id="Path-3" data-name="Path" d="M7.818,6.324a.963.963,0,0,1,.531-.72.945.945,0,0,1,.412-.094h5.98a12.348,12.348,0,0,1,1.973.145q.259.042.5.1t.475.123c.077.022.152.046.226.071a5.355,5.355,0,0,1,.827.353,4.961,4.961,0,0,0-1.035-4.43C16.573.561,14.519,0,11.891,0H4.263A1.1,1.1,0,0,0,3.185.931L.008,21.277a.659.659,0,0,0,.647.764h4.71l1.183-7.578Z" transform="translate(0)" fill="#fff"/>
  </g>
</svg>
